<svg xmlns="http://www.w3.org/2000/svg" version="1.1" xmlns:xlink="http://www.w3.org/1999/xlink" xmlns:svgjs="http://svgjs.dev/svgjs" width="100" height="80" viewBox="0 0 2000 1500"><rect x="90" y="178.9" width="1910" height="1005.3" fill="#000000"></rect><g transform="matrix(0.8,0,0,0.8,249.1,329.8)"><svg viewBox="0 0 396 222" data-background-color="#ffffff" preserveAspectRatio="xMidYMid meet" height="1121" width="2000" xmlns="http://www.w3.org/2000/svg" xmlns:xlink="http://www.w3.org/1999/xlink"><g id="tight-bounds" transform="matrix(1,0,0,1,0.2,0)"><svg viewBox="0 0 395.52 222.09905835948825" height="222.1" width="395.5"><g><svg viewBox="0 0 395.52 222.09905835948825" height="222.1" width="395.5"><g><svg viewBox="0 0 395.52 222.09905835948825" height="222.1" width="395.5"><g id="textblocktransform"><svg viewBox="0 0 395.52 222.09905835948825" height="222.1" width="395.5" id="textblock"><g><svg viewBox="0 0 395.52 177.45763325816253" height="177.5" width="395.5"><rect width="395.5" height="177.5" x="0" y="0" opacity="1" fill="rgba(255,255,255,0.726)" data-fill-palette-color="tertiary"></rect><g transform="matrix(1,0,0,1,23.5,23.5)"><svg width="348.6" viewBox="111.20000457763672 -37.04999923706055 218.72998046875 78.80000305175781" height="130.5" data-palette-color="#ffffff"><svg></svg><svg></svg><g class="wordmark-text-0" data-fill-palette-color="quaternary" id="text-0"><path xmlns="http://www.w3.org/2000/svg" d="M 138.1 -4.5 l 1.1 2.1 c -0.8 0.5 -1.6 0.9 -2.6 1.4 c -1 0.4 -2.1 0.8 -3.3 1 c -1.2 0.2 -2.5 0.4 -3.9 0.4 v 0 c -2.7 0 -5.2 -0.5 -7.3 -1.4 c -2.2 -0.9 -4.1 -2.2 -5.7 -3.9 c -1.6 -1.6 -2.8 -3.5 -3.6 -5.7 c -0.8 -2.1 -1.3 -4.4 -1.3 -6.9 v 0 c 0 -2.6 0.5 -5 1.4 -7.3 c 0.9 -2.2 2.2 -4.2 3.8 -5.8 c 1.6 -1.7 3.5 -3 5.7 -3.9 c 2.2 -0.9 4.5 -1.4 7 -1.4 v 0 c 1.9 0 3.6 0.3 5.3 0.8 c 1.6 0.5 3.1 1.1 4.5 1.9 v 0 l -1.1 2.3 c -1.2 -0.7 -2.5 -1.4 -4 -1.9 c -1.5 -0.5 -3 -0.8 -4.7 -0.8 v 0 c -2.1 0 -4.1 0.4 -6 1.2 c -1.9 0.8 -3.5 2 -4.9 3.4 c -1.4 1.5 -2.5 3.1 -3.3 5.1 c -0.8 1.9 -1.2 4 -1.2 6.3 v 0 c 0 2.1 0.4 4.2 1.1 6 c 0.7 1.9 1.7 3.6 3.1 5 c 1.3 1.4 3 2.6 4.9 3.4 c 1.9 0.8 4 1.2 6.3 1.2 v 0 c 1.7 0 3.3 -0.2 4.8 -0.7 c 1.4 -0.5 2.7 -1.1 3.9 -1.8 z M 148.3 -35.5 h 8.1 c 1.3 0 2.7 0.2 4 0.6 c 1.3 0.4 2.5 1 3.6 1.8 c 1.1 0.8 2 1.9 2.6 3.1 c 0.7 1.3 1 2.8 1 4.5 v 0 c 0 1.3 -0.2 2.6 -0.6 3.9 c -0.4 1.3 -1.1 2.4 -1.9 3.4 c -0.9 1 -2.1 1.8 -3.5 2.4 c -1.4 0.6 -3.2 0.9 -5.3 0.9 v 0 h -5.5 v 14.9 h -2.5 z M 150.7 -17.3 h 5.3 c 1.8 0 3.2 -0.3 4.4 -0.8 c 1.2 -0.5 2.1 -1.1 2.8 -1.9 c 0.7 -0.8 1.1 -1.7 1.4 -2.6 c 0.3 -0.9 0.4 -1.9 0.4 -2.8 v 0 c 0 -1.1 -0.2 -2.1 -0.6 -3 c -0.4 -0.9 -0.9 -1.8 -1.7 -2.5 c -0.7 -0.7 -1.6 -1.3 -2.6 -1.7 c -1 -0.4 -2.2 -0.6 -3.5 -0.6 v 0 h -6 z M 158.3 -16.1 l 2.9 -0.1 l 9.8 16.1 h -2.9 z M 179.9 0 v -35.5 h 2.5 v 35.5 z M 212.4 -33.4 l -0.9 1.9 c -1 -0.5 -2.3 -1 -3.8 -1.4 c -1.5 -0.4 -3 -0.7 -4.5 -0.7 v 0 c -2.3 0 -4.2 0.6 -5.6 1.8 c -1.4 1.2 -2.1 2.6 -2.1 4.4 v 0 c 0 1.3 0.4 2.4 1.2 3.3 c 0.8 0.9 1.9 1.6 3.1 2.3 c 1.3 0.6 2.7 1.2 4.2 1.8 v 0 c 1.2 0.4 2.3 0.9 3.5 1.4 c 1.1 0.5 2.2 1.2 3.1 1.9 c 0.9 0.8 1.7 1.7 2.2 2.9 c 0.5 1.1 0.8 2.5 0.8 4.2 v 0 c 0 2 -0.5 3.7 -1.4 5.2 c -0.9 1.5 -2.2 2.7 -3.9 3.5 c -1.7 0.8 -3.6 1.3 -5.8 1.3 v 0 c -1.8 0 -3.4 -0.2 -4.8 -0.7 c -1.5 -0.4 -2.7 -0.9 -3.8 -1.5 c -1.1 -0.6 -1.9 -1.1 -2.6 -1.5 v 0 l 1.1 -2 c 0.7 0.5 1.6 1.1 2.7 1.6 c 1 0.5 2.2 1 3.4 1.4 c 1.2 0.4 2.5 0.6 3.7 0.6 v 0 c 1.4 0 2.8 -0.3 4.2 -0.8 c 1.3 -0.6 2.5 -1.4 3.4 -2.6 c 0.9 -1.1 1.3 -2.6 1.3 -4.4 v 0 c 0 -1.7 -0.4 -3.1 -1.3 -4.1 c -0.8 -1 -1.9 -1.9 -3.2 -2.6 c -1.3 -0.7 -2.7 -1.3 -4.2 -1.8 v 0 c -1.1 -0.4 -2.3 -0.9 -3.4 -1.4 c -1.1 -0.5 -2.2 -1.1 -3.1 -1.8 c -0.9 -0.7 -1.7 -1.5 -2.2 -2.5 c -0.5 -1 -0.8 -2.1 -0.8 -3.5 v 0 c 0 -1.7 0.4 -3.2 1.3 -4.5 c 0.9 -1.3 2 -2.3 3.5 -3 c 1.5 -0.7 3.2 -1.1 5.1 -1.1 v 0 c 1.7 0 3.4 0.2 5.1 0.7 c 1.7 0.4 3.2 1 4.5 1.6 z M 219.4 -33.1 v -2.4 h 23.3 v 2.4 h -10.4 v 33.1 h -2.5 v -33.1 z M 251.1 0 v -35.5 h 2.5 v 35.5 z M 264.2 0 h -2.5 l 15 -37 h 0.2 l 15 37 h -2.8 l -13.1 -33.1 l 1.7 -0.9 z M 268.4 -11.8 l 0.6 -2.3 h 15.8 l 0.7 2.3 z M 329.9 0.8 h -0.1 l -28 -31.6 l 0.7 -0.5 l 0.1 31.2 h -2.4 v -36.3 h 0.1 l 28 31.8 l -0.7 0.2 l -0.1 -31.3 h 2.4 z" fill="#000000" fill-rule="nonzero" stroke="none" stroke-width="1" stroke-linecap="butt" stroke-linejoin="miter" stroke-miterlimit="10" stroke-dasharray="" stroke-dashoffset="0" font-family="none" font-weight="none" font-size="none" text-anchor="none" style="mix-blend-mode: normal" data-fill-palette-color="quaternary" opacity="1"></path><path xmlns="http://www.w3.org/2000/svg" d="M 113.7 40.9 h -2.5 l 15 -37 h 0.2 l 15 37 h -2.8 l -13.1 -33.1 l 1.7 -0.9 z M 117.8 29.1 l 0.6 -2.3 h 15.8 l 0.7 2.3 z M 149.6 5.4 h 8.1 c 1.3 0 2.7 0.2 4 0.6 c 1.3 0.4 2.5 1 3.6 1.8 c 1.1 0.8 2 1.9 2.6 3.1 c 0.7 1.3 1 2.8 1 4.5 v 0 c 0 1.3 -0.2 2.6 -0.6 3.9 c -0.4 1.3 -1.1 2.4 -1.9 3.4 c -0.9 1 -2.1 1.8 -3.5 2.4 c -1.4 0.6 -3.2 0.9 -5.3 0.9 v 0 h -5.5 v 14.9 h -2.5 z M 152.1 23.6 h 5.3 c 1.8 0 3.2 -0.3 4.4 -0.8 c 1.2 -0.5 2.1 -1.1 2.8 -1.9 c 0.7 -0.8 1.1 -1.7 1.4 -2.6 c 0.3 -0.9 0.4 -1.9 0.4 -2.8 v 0 c 0 -1.1 -0.2 -2.1 -0.6 -3 c -0.4 -0.9 -0.9 -1.8 -1.7 -2.5 c -0.7 -0.7 -1.6 -1.3 -2.6 -1.7 c -1 -0.4 -2.2 -0.6 -3.5 -0.6 v 0 h -6 z M 159.6 24.8 l 2.9 -0.1 l 9.8 16.1 h -2.9 z M 180.6 40.9 h -2.5 l 15 -37 h 0.2 l 15 37 h -2.8 l -13.1 -33.1 l 1.7 -0.9 z M 184.8 29.1 l 0.6 -2.3 h 15.8 l 0.7 2.3 z M 246.3 41.8 h -0.1 l -28 -31.6 l 0.7 -0.5 l 0.1 31.2 h -2.4 v -36.3 h 0.1 l 28 31.8 l -0.7 0.2 l -0.1 -31.3 h 2.4 z M 268.1 40.9 h -10.4 v -35.5 h 8.8 c 3.4 0 6.4 0.5 8.8 1.6 c 2.4 1.1 4.4 2.5 5.9 4.3 c 1.5 1.8 2.6 3.7 3.3 5.8 c 0.7 2.1 1.1 4.2 1.1 6.3 v 0 c 0 2.7 -0.5 5.1 -1.4 7.3 c -0.9 2.2 -2.2 4 -3.8 5.5 c -1.6 1.5 -3.5 2.7 -5.5 3.5 c -2.1 0.8 -4.3 1.2 -6.5 1.2 z M 260.1 7.8 v 30.8 h 7.3 c 2.1 0 4.1 -0.3 6 -1.1 c 1.9 -0.7 3.5 -1.7 4.9 -3 c 1.4 -1.3 2.5 -2.9 3.3 -4.8 c 0.8 -1.9 1.2 -4 1.2 -6.4 v 0 c 0 -2 -0.3 -4 -1 -5.8 c -0.7 -1.8 -1.7 -3.5 -3.1 -4.9 c -1.4 -1.4 -3 -2.6 -5 -3.4 c -2 -0.8 -4.3 -1.3 -7 -1.3 v 0 z M 292.2 23.2 v 0 c 0 -2.5 0.5 -4.8 1.4 -7 c 0.9 -2.2 2.2 -4.1 3.9 -5.8 c 1.7 -1.7 3.6 -3 5.8 -4 c 2.2 -0.9 4.5 -1.4 7 -1.4 v 0 c 2.5 0 4.8 0.5 7 1.4 c 2.2 1 4.1 2.3 5.8 4 c 1.7 1.7 3 3.6 3.9 5.8 c 0.9 2.2 1.4 4.5 1.4 7 v 0 c 0 2.5 -0.5 4.8 -1.4 7 c -1 2.2 -2.3 4.1 -3.9 5.8 c -1.7 1.7 -3.6 3 -5.8 3.9 c -2.2 0.9 -4.5 1.4 -7 1.4 v 0 c -2.5 0 -4.8 -0.5 -7 -1.4 c -2.2 -0.9 -4.1 -2.2 -5.8 -3.8 c -1.7 -1.6 -3 -3.5 -3.9 -5.8 c -0.9 -2.2 -1.4 -4.6 -1.4 -7.2 z M 294.7 23.3 v 0 c 0 2.2 0.4 4.2 1.2 6.1 c 0.8 1.9 1.9 3.6 3.4 5 c 1.4 1.4 3.1 2.6 5 3.4 c 1.9 0.8 3.9 1.2 6 1.2 v 0 c 2.2 0 4.3 -0.4 6.2 -1.2 c 1.9 -0.8 3.6 -1.9 5 -3.4 c 1.4 -1.4 2.6 -3.1 3.4 -5 c 0.8 -1.9 1.2 -4 1.2 -6.2 v 0 c 0 -2.2 -0.4 -4.2 -1.2 -6.1 c -0.8 -1.9 -1.9 -3.6 -3.4 -5 c -1.4 -1.4 -3.1 -2.6 -5 -3.4 c -1.9 -0.8 -3.9 -1.3 -6.1 -1.3 v 0 c -2.2 0 -4.3 0.4 -6.2 1.3 c -1.9 0.8 -3.6 2 -5 3.5 c -1.4 1.5 -2.5 3.2 -3.3 5.1 c -0.8 1.9 -1.2 3.9 -1.2 6.1 z" fill="#000000" fill-rule="nonzero" stroke="none" stroke-width="1" stroke-linecap="butt" stroke-linejoin="miter" stroke-miterlimit="10" stroke-dasharray="" stroke-dashoffset="0" font-family="none" font-weight="none" font-size="none" text-anchor="none" style="mix-blend-mode: normal" data-fill-palette-color="quaternary" opacity="1"></path></g></svg></g></svg></g><g transform="matrix(1,0,0,1,75.5,189.2)"><svg viewBox="0 0 244.43135999999996 32.91057258532573" height="32.9" width="244.4"><g transform="matrix(1,0,0,1,0,0)"><svg width="244.4" viewBox="2.200000047683716 -40.81999969482422 415.55999755859375 55.959999084472656" height="32.9" data-palette-color="#111111"><path d="M 19.2 -34 L 20.6 -34.1 Q 20.9 -34.1 20.9 -33.6 L 20.9 -33.6 L 21.5 -28.4 Q 21.6 -27.9 21.6 -27.8 Q 21.6 -27.6 21.2 -27.6 Q 20.8 -27.6 20.7 -27.7 Q 20.6 -27.8 20.5 -28.1 Q 20.4 -28.3 20.3 -28.6 Q 20.2 -28.9 20 -29.2 L 20 -29.2 Q 19.5 -30.3 18.4 -31.4 L 18.4 -31.4 Q 15.7 -34 12.3 -34 L 12.3 -34 Q 10.3 -34 8.5 -32.7 Q 6.7 -31.4 6.7 -29.6 Q 6.7 -27.8 7.4 -26.4 Q 8.1 -25.1 9.2 -24 Q 10.3 -22.9 11.7 -21.9 Q 13.1 -20.8 14.6 -19.8 L 14.6 -19.8 Q 18.4 -17.1 20.1 -15.1 L 20.1 -15.1 Q 22.6 -12.2 22.9 -8.4 L 22.9 -8.4 Q 22.9 -4.3 19.7 -1.8 Q 16.5 0.7 12.3 0.7 L 12.3 0.7 Q 9.6 0.7 8 0.1 Q 6.3 -0.4 5.7 -0.7 Q 5.1 -0.9 4.8 -0.9 Q 4.6 -0.9 4.5 -0.9 L 4.5 -0.9 L 3.3 -0.7 Q 3 -0.7 2.9 -1.2 L 2.9 -1.2 Q 2.2 -7.2 2.2 -7.6 Q 2.2 -8 2.3 -8.1 Q 2.3 -8.3 2.6 -8.3 L 2.6 -8.3 Q 3.3 -8.3 3.8 -6.3 L 3.8 -6.3 Q 6.4 -0.8 12.3 -0.8 L 12.3 -0.8 Q 15.1 -0.8 17 -2.5 Q 19 -4.1 19 -6.8 L 19 -6.8 Q 19 -11 13.9 -14.7 L 13.9 -14.7 Q 12.4 -15.7 9.7 -17.6 Q 7 -19.4 5.4 -21.2 L 5.4 -21.2 Q 2.9 -24.1 2.9 -27.5 Q 2.9 -31 5.7 -33.2 Q 8.4 -35.5 12 -35.5 L 12 -35.5 Q 13.9 -35.5 16.1 -34.8 Q 18.4 -34.2 19.2 -34 L 19.2 -34 Z M 26.9 -11 Q 26.9 -15.8 30.3 -19.2 Q 33.7 -22.7 38.5 -22.7 Q 43.2 -22.7 46.7 -19.3 Q 50.2 -16 50.2 -11 Q 50.2 -6.1 46.9 -2.7 Q 43.6 0.7 38.5 0.7 Q 33.5 0.7 30.2 -2.8 Q 26.9 -6.2 26.9 -11 Z M 33 -4.7 L 33 -4.7 Q 35.4 -0.7 39.5 -0.7 L 39.5 -0.7 Q 42.7 -0.7 44.4 -3.2 Q 46.1 -5.8 46.1 -9.5 Q 46.1 -13.3 43.7 -17.2 Q 41.3 -21.1 37.3 -21.1 L 37.3 -21.1 Q 34.3 -21.1 32.6 -18.6 Q 30.9 -16 30.9 -12.1 Q 30.9 -8.2 33 -4.7 Z M 67.1 -0.4 L 67.1 -0.4 Q 67.1 0 66.7 0 L 66.7 0 L 53.3 0 Q 53 -0.1 53 -0.3 L 53 -0.3 Q 53 -0.8 54.2 -0.9 L 54.2 -0.9 Q 56.8 -1.3 56.8 -3.7 L 56.8 -3.7 L 56.8 -18.5 Q 56.8 -18.8 56.5 -18.8 L 56.5 -18.8 L 53.9 -18.8 Q 53.6 -18.8 53.3 -19 Q 53 -19.1 53 -19.4 Q 53 -19.8 53.3 -19.9 L 53.3 -19.9 Q 53.8 -20.2 55.3 -20.6 Q 56.8 -21 56.8 -21.9 L 56.8 -21.9 L 56.8 -22.8 Q 56.8 -31.5 60.6 -36.3 L 60.6 -36.3 Q 62.8 -38.9 67.1 -40.4 L 67.1 -40.4 Q 68.4 -40.8 69.7 -40.8 Q 71 -40.8 72.8 -40.1 Q 74.5 -39.5 74.5 -38.5 L 74.5 -38.5 Q 74.5 -38.3 74.4 -38.2 Q 74.4 -38 74.3 -37.8 L 74.3 -37.8 L 73.3 -35.7 Q 73.1 -35.3 72.8 -35.3 L 72.8 -35.3 Q 72.8 -35.3 71.8 -36 Q 70.8 -36.8 69.7 -37.5 Q 68.6 -38.1 67.2 -38.1 L 67.2 -38.1 Q 64.3 -38.1 62.8 -36.6 Q 61.4 -35.2 61 -33.3 Q 60.6 -31.5 60.6 -29.3 L 60.6 -29.3 L 60.6 -22.2 Q 60.6 -22 60.9 -22 L 60.9 -22 L 65.6 -22 Q 66.3 -22 66.5 -21.8 Q 66.7 -21.7 66.9 -21 Q 67.1 -20.2 67.1 -19.6 Q 67.1 -19 67 -18.9 Q 66.9 -18.8 66.5 -18.8 L 66.5 -18.8 L 61 -18.8 Q 60.6 -18.8 60.6 -18.5 L 60.6 -18.5 L 60.6 -4.2 Q 60.6 -0.7 66.7 -0.7 L 66.7 -0.7 Q 67.1 -0.7 67.1 -0.4 Z M 82.3 -18.8 L 74.9 -18.8 Q 74.8 -18.8 74.8 -18.6 L 74.8 -18.6 L 74.8 -5.1 Q 74.8 -3.6 75.4 -2.8 Q 76.1 -1.9 77.1 -1.9 Q 78.1 -1.9 78.8 -2.3 Q 79.6 -2.6 80.1 -3 Q 80.7 -3.4 81.1 -3.7 Q 81.6 -4 81.9 -4 Q 82.2 -4 82.2 -3.9 L 82.2 -3.9 Q 82.2 -3.3 82.1 -3.1 L 82.1 -3.1 Q 79.2 0.7 76.5 0.7 Q 73.8 0.7 72.4 -1.1 Q 71 -2.8 71 -5.2 L 71 -5.2 L 71 -18.8 L 69.2 -18.8 Q 68.5 -18.8 68.4 -19.2 Q 68.4 -19.6 68.6 -19.8 L 68.6 -19.8 Q 69.9 -20.6 72.1 -22.8 L 72.1 -22.8 Q 72.4 -23 72.8 -23.6 Q 73.2 -24.1 74 -25 Q 74.8 -25.9 75.2 -25.9 Q 75.6 -25.9 75.6 -25.6 L 75.6 -25.6 Q 75.6 -25.6 74.8 -22.4 L 74.8 -22.4 Q 74.8 -22 75.2 -21.9 L 75.2 -21.9 L 81.4 -21.9 Q 82.5 -21.9 82.5 -18.9 L 82.5 -18.9 Q 82.5 -18.8 82.3 -18.8 L 82.3 -18.8 Z M 112.9 -22 L 122.2 -22 Q 122.5 -21.9 122.5 -21.6 Q 122.5 -21.4 122.4 -21.2 Q 122.3 -21.1 121.3 -21 Q 120.3 -20.8 119.9 -20.4 Q 119.5 -20 119.1 -19.4 Q 118.8 -18.9 118.5 -18.3 Q 118.3 -17.8 118.1 -17.3 L 118.1 -17.3 L 111.4 -0.1 Q 111.1 0.7 110.9 0.7 L 110.9 0.7 L 109 0.7 Q 108.7 0.7 108.4 -0.1 L 108.4 -0.1 L 103 -14.8 L 97.3 -0.1 Q 97 0.7 96.8 0.7 L 96.8 0.7 L 94.8 0.7 Q 94.6 0.7 94.3 -0.1 L 94.3 -0.1 L 87.8 -17.6 Q 86.9 -20.1 84.7 -20.8 L 84.7 -20.8 Q 84.6 -20.8 84.3 -20.9 L 84.3 -20.9 Q 83.3 -20.9 83.3 -21.5 Q 83.3 -22 83.9 -22 L 83.9 -22 L 94.7 -22 Q 94.9 -22 94.9 -21.6 Q 94.9 -21.2 94.7 -21.1 L 94.7 -21.1 Q 94.2 -20.9 93.2 -20.9 L 93.2 -20.9 Q 91.4 -21 91.4 -19.5 L 91.4 -19.5 L 91.4 -18.9 L 96.4 -5.3 Q 96.9 -4.1 97.3 -5.4 L 97.3 -5.4 Q 97.4 -5.5 99.4 -10.6 Q 101.4 -15.6 101.9 -17.6 L 101.9 -17.6 Q 101 -20.1 98.8 -20.8 L 98.8 -20.8 Q 98.7 -20.8 98.4 -20.9 L 98.4 -20.9 Q 97.4 -20.9 97.4 -21.5 Q 97.4 -22 98 -22 L 98 -22 L 108.8 -22 Q 109 -22 109 -21.6 Q 109 -21.2 108.8 -21.1 L 108.8 -21.1 Q 108.3 -20.9 107.3 -20.9 L 107.3 -20.9 Q 105.5 -21 105.5 -19.5 L 105.5 -19.5 L 105.5 -18.9 L 110.5 -5.3 Q 111 -4.1 111.5 -5.4 L 111.5 -5.4 Q 111.5 -5.5 112.1 -7 L 112.1 -7 Q 115.1 -14.5 115.7 -16.3 Q 116.2 -18.1 116.2 -18.7 Q 116.2 -19.4 115.5 -20.1 Q 114.8 -20.8 113.6 -20.8 Q 112.4 -20.8 112.4 -21.6 L 112.4 -21.6 Q 112.4 -22 112.9 -22 L 112.9 -22 Z M 140 -4 Q 140 -3.4 140.6 -3 Q 141.2 -2.6 142 -2.6 Q 142.7 -2.6 143.3 -3 Q 143.8 -3.4 144 -3.4 Q 144.2 -3.4 144.2 -2.9 Q 144.2 -2.4 143.7 -2 L 143.7 -2 Q 140 0.7 138.7 0.7 L 138.7 0.7 Q 137.2 0.7 136.2 -2.6 L 136.2 -2.6 Q 136.1 -2.8 136.1 -2.8 L 136.1 -2.8 Q 133 -0.5 132.3 -0.1 L 132.3 -0.1 Q 130.3 1.1 128.3 0.3 Q 126.2 -0.5 125.3 -2.3 L 125.3 -2.3 Q 124.9 -3.2 124.9 -4.3 L 124.9 -4.3 Q 124.9 -6.3 126.4 -7.6 Q 128 -8.8 132.3 -9.9 L 132.3 -9.9 Q 133.8 -10.3 134.9 -10.9 Q 136.1 -11.5 136.1 -11.7 Q 136.2 -11.9 136.2 -12 L 136.2 -12 L 136.2 -16.7 Q 136.2 -19.5 134 -20.6 L 134 -20.6 Q 133.3 -20.9 132.3 -20.9 Q 131.3 -20.9 130.3 -20.2 Q 129.3 -19.4 129.3 -17.9 L 129.3 -17.9 L 129.4 -17 Q 129.3 -16.7 127.7 -16 Q 126.1 -15.3 125.8 -15.3 L 125.8 -15.3 Q 125.4 -15.3 125.4 -16.2 Q 125.4 -17.2 126 -18.3 Q 126.5 -19.5 127.6 -20.4 L 127.6 -20.4 Q 130 -22.6 133 -22.6 Q 136.1 -22.6 138.1 -20.9 Q 140 -19.2 140 -16.9 L 140 -16.9 L 140 -4 Z M 128.7 -4.7 Q 128.7 -3.6 129.6 -2.7 Q 130.5 -1.8 131.7 -1.8 Q 132.8 -1.8 134.5 -2.8 Q 136.2 -3.8 136.2 -4.9 L 136.2 -4.9 L 136.2 -9.8 Q 136.2 -10.1 136.1 -10.1 Q 135.9 -10.1 135.9 -10.1 L 135.9 -10.1 L 130.2 -7.4 Q 129.3 -6.8 129 -6.3 Q 128.7 -5.9 128.7 -4.7 Z M 161.3 -17.5 L 161.3 -17.5 Q 161 -17.6 160.5 -17.8 L 160.5 -17.8 Q 158.5 -18.8 157.3 -18.8 Q 156.2 -18.8 154.9 -17.3 Q 153.7 -15.9 153.7 -14.8 L 153.7 -14.8 L 153.7 -3.7 Q 153.7 -1.9 155.8 -1.3 L 155.8 -1.3 Q 156.7 -1 157.5 -0.9 Q 158.3 -0.8 158.5 -0.7 Q 158.8 -0.6 158.8 -0.3 Q 158.8 -0.1 158.5 0 L 158.5 0 L 146.3 0 Q 146.1 -0.1 146.1 -0.3 L 146.1 -0.3 Q 146.1 -0.8 147.2 -0.9 L 147.2 -0.9 Q 149.8 -1.3 149.8 -3.7 L 149.8 -3.7 L 149.8 -16.6 Q 149.8 -17.6 148.7 -18 L 148.7 -18 Q 148.2 -18.2 147.7 -18.3 Q 147.1 -18.4 146.8 -18.5 Q 146.4 -18.6 146.4 -18.7 Q 146.3 -18.8 146.3 -19.1 Q 146.3 -19.4 146.6 -19.6 L 146.6 -19.6 L 152.9 -22.5 Q 153.2 -22.6 153.2 -22.6 L 153.2 -22.6 Q 153.7 -22.6 153.7 -22.1 L 153.7 -22.1 L 153.7 -18.1 Q 153.7 -17.8 153.8 -17.8 L 153.8 -17.8 Q 154 -17.8 154.8 -18.9 L 154.8 -18.9 Q 157.1 -22.2 158.6 -22.2 L 158.6 -22.2 Q 159.5 -22.2 161.3 -21.5 Q 163 -20.8 163 -20.4 L 163 -20.4 Q 163 -19.8 162.5 -18.6 Q 161.9 -17.5 161.3 -17.5 Z M 182.8 -12.9 L 168.7 -12.9 Q 168.2 -12.9 168.2 -11.1 L 168.2 -11.1 Q 168.2 -7.3 170.5 -4.7 Q 172.7 -2.2 176.1 -2.2 Q 179.4 -2.2 182.5 -5 L 182.5 -5 Q 182.5 -5.1 182.6 -5.1 L 182.6 -5.1 L 182.7 -5.1 Q 182.9 -5.1 183 -4.9 Q 183.1 -4.6 183.3 -4.6 L 183.3 -4.6 Q 180.4 -1.1 176.6 0.2 L 176.6 0.2 Q 175.3 0.7 173.6 0.7 Q 172 0.7 170.3 -0.3 Q 168.5 -1.2 167.3 -2.7 L 167.3 -2.7 Q 164.7 -5.8 164.7 -10.4 Q 164.7 -15 167.6 -18.8 Q 170.4 -22.6 175.3 -22.6 L 175.3 -22.6 Q 178.8 -22.6 181.1 -19.5 Q 183.3 -16.3 183.3 -13.9 L 183.3 -13.9 Q 183.3 -12.9 182.8 -12.9 L 182.8 -12.9 Z M 168.9 -15.5 L 168.9 -15.2 Q 168.9 -14.8 169.4 -14.8 L 169.4 -14.8 L 178.6 -14.8 Q 179.2 -14.8 179.2 -15.5 L 179.2 -15.5 Q 179.2 -17.3 177.6 -19.1 Q 176.1 -20.9 174.2 -20.9 L 174.2 -20.9 Q 172.3 -20.9 170.8 -19.3 Q 169.3 -17.6 168.9 -15.5 L 168.9 -15.5 Z M 200.3 -33.6 L 200.3 -34.3 Q 200.3 -34.5 200.4 -34.5 L 200.4 -34.5 L 201 -34.5 L 208.8 -34.7 Q 210.2 -34.7 211.9 -34.7 L 211.9 -34.7 L 214.9 -34.7 Q 219.2 -34.7 221.3 -34.4 Q 223.5 -34.1 225.5 -33.6 Q 227.6 -33.2 229.9 -31.7 Q 232.3 -30.2 234 -28.1 L 234 -28.1 Q 237.6 -23.5 237.6 -18.1 Q 237.6 -12.8 234.8 -8.6 L 234.8 -8.6 Q 230.8 -2.5 223.2 -0.6 L 223.2 -0.6 Q 220.8 0 218.2 0 L 218.2 0 L 200.4 0 Q 200.3 0 200.3 -0.2 L 200.3 -0.2 L 200.3 -0.9 Q 200.3 -1.1 200.4 -1.1 L 200.4 -1.1 L 201 -1.1 Q 205.4 -1.1 205.4 -3.9 L 205.4 -3.9 L 205.4 -30.7 Q 205.4 -32 204.4 -32.7 Q 203.3 -33.4 202 -33.4 L 202 -33.4 L 200.4 -33.4 Q 200.3 -33.4 200.3 -33.6 L 200.3 -33.6 Z M 217.4 -33.6 L 210.8 -33.6 Q 210.2 -33.6 210.2 -32.9 L 210.2 -32.9 L 210.2 -3 Q 210.2 -1.3 213.6 -1.2 L 213.6 -1.2 Q 214.6 -1.1 215.7 -1.1 L 215.7 -1.1 Q 223.5 -1.1 227.9 -5.5 Q 232.4 -9.9 232.4 -17.1 Q 232.4 -24.4 228.3 -29 Q 224.2 -33.6 217.4 -33.6 L 217.4 -33.6 Z M 259.6 -12.9 L 245.4 -12.9 Q 245 -12.9 245 -11.1 L 245 -11.1 Q 245 -7.3 247.2 -4.7 Q 249.5 -2.2 252.8 -2.2 Q 256.1 -2.2 259.2 -5 L 259.2 -5 Q 259.3 -5.1 259.4 -5.1 L 259.4 -5.1 L 259.5 -5.1 Q 259.6 -5.1 259.8 -4.9 Q 259.9 -4.6 260 -4.6 L 260 -4.6 Q 257.2 -1.1 253.3 0.2 L 253.3 0.2 Q 252 0.7 250.4 0.7 Q 248.7 0.7 247 -0.3 Q 245.3 -1.2 244.1 -2.7 L 244.1 -2.7 Q 241.5 -5.8 241.5 -10.4 Q 241.5 -15 244.3 -18.8 Q 247.1 -22.6 252.1 -22.6 L 252.1 -22.6 Q 255.6 -22.6 257.8 -19.5 Q 260.1 -16.3 260.1 -13.9 L 260.1 -13.9 Q 260.1 -12.9 259.6 -12.9 L 259.6 -12.9 Z M 245.7 -15.5 L 245.7 -15.2 Q 245.7 -14.8 246.1 -14.8 L 246.1 -14.8 L 255.3 -14.8 Q 256 -14.8 256 -15.5 L 256 -15.5 Q 256 -17.3 254.4 -19.1 Q 252.8 -20.9 250.9 -20.9 L 250.9 -20.9 Q 249.1 -20.9 247.6 -19.3 Q 246.1 -17.6 245.7 -15.5 L 245.7 -15.5 Z M 278 -22 L 287.3 -22 Q 287.5 -21.9 287.5 -21.6 Q 287.5 -21.4 287.4 -21.2 Q 287.4 -21.1 286.4 -21 Q 285.4 -20.8 284.9 -20.4 Q 284.5 -20 284.2 -19.4 Q 283.9 -18.9 283.6 -18.3 Q 283.4 -17.8 283.1 -17.3 L 283.1 -17.3 L 276.5 -0.1 Q 276.2 0.7 275.9 0.7 L 275.9 0.7 L 274 0.7 Q 273.8 0.7 273.5 -0.1 L 273.5 -0.1 L 267 -17.6 Q 266.1 -20.1 263.9 -20.8 L 263.9 -20.8 Q 263.7 -20.8 263.5 -20.9 L 263.5 -20.9 Q 262.5 -20.9 262.5 -21.5 Q 262.5 -22 263.1 -22 L 263.1 -22 L 273.9 -22 Q 274.1 -22 274.1 -21.6 Q 274.1 -21.2 273.9 -21.1 L 273.9 -21.1 Q 273.4 -20.9 272.3 -20.9 L 272.3 -20.9 Q 270.5 -21 270.5 -19.5 L 270.5 -19.5 L 270.6 -18.9 L 275.6 -5.3 Q 276.1 -4.1 276.5 -5.4 L 276.5 -5.4 Q 276.6 -5.5 277.2 -7 L 277.2 -7 Q 280.5 -15.4 280.9 -16.8 Q 281.3 -18.1 281.3 -18.7 Q 281.3 -19.4 280.6 -20.1 Q 279.9 -20.8 278.7 -20.8 Q 277.5 -20.8 277.5 -21.6 L 277.5 -21.6 Q 277.5 -22 278 -22 L 278 -22 Z M 307.6 -12.9 L 293.4 -12.9 Q 293 -12.9 293 -11.1 L 293 -11.1 Q 293 -7.3 295.2 -4.7 Q 297.5 -2.2 300.8 -2.2 Q 304.1 -2.2 307.2 -5 L 307.2 -5 Q 307.3 -5.1 307.3 -5.1 L 307.3 -5.1 L 307.5 -5.1 Q 307.6 -5.1 307.8 -4.9 Q 307.9 -4.6 308 -4.6 L 308 -4.6 Q 305.2 -1.1 301.3 0.2 L 301.3 0.2 Q 300 0.7 298.4 0.7 Q 296.7 0.7 295 -0.3 Q 293.3 -1.2 292.1 -2.7 L 292.1 -2.7 Q 289.5 -5.8 289.5 -10.4 Q 289.5 -15 292.3 -18.8 Q 295.1 -22.6 300 -22.6 L 300 -22.6 Q 303.6 -22.6 305.8 -19.5 Q 308.1 -16.3 308.1 -13.9 L 308.1 -13.9 Q 308.1 -12.9 307.6 -12.9 L 307.6 -12.9 Z M 293.7 -15.5 L 293.7 -15.2 Q 293.7 -14.8 294.1 -14.8 L 294.1 -14.8 L 303.3 -14.8 Q 303.9 -14.8 303.9 -15.5 L 303.9 -15.5 Q 303.9 -17.3 302.4 -19.1 Q 300.8 -20.9 298.9 -20.9 L 298.9 -20.9 Q 297.1 -20.9 295.6 -19.3 Q 294.1 -17.6 293.7 -15.5 L 293.7 -15.5 Z M 321.2 -0.9 L 321.2 -0.9 Q 322.3 -0.8 322.3 -0.3 L 322.3 -0.3 Q 322.3 -0.1 322.1 0 L 322.1 0 L 311.2 0 Q 310.9 -0.1 310.9 -0.3 L 310.9 -0.3 Q 310.9 -0.8 312.1 -0.9 L 312.1 -0.9 Q 314.7 -1.3 314.7 -3.7 L 314.7 -3.7 L 314.7 -34.2 Q 314.7 -35.2 313.6 -35.6 L 313.6 -35.6 Q 313.1 -35.7 312.6 -35.9 Q 312 -36 311.7 -36.1 Q 311.3 -36.2 311.3 -36.2 Q 311.2 -36.3 311.2 -36.6 Q 311.2 -36.9 311.5 -37.1 L 311.5 -37.1 L 317.8 -40 Q 318.1 -40.2 318.1 -40.2 L 318.1 -40.2 Q 318.6 -40.2 318.6 -39.6 L 318.6 -39.6 L 318.6 -3.7 Q 318.6 -1.3 321.2 -0.9 Z M 325 -11 Q 325 -15.8 328.4 -19.2 Q 331.8 -22.7 336.6 -22.7 Q 341.4 -22.7 344.9 -19.3 Q 348.4 -16 348.4 -11 Q 348.4 -6.1 345.1 -2.7 Q 341.7 0.7 336.7 0.7 Q 331.6 0.7 328.3 -2.8 Q 325 -6.2 325 -11 Z M 331.1 -4.7 L 331.1 -4.7 Q 333.5 -0.7 337.6 -0.7 L 337.6 -0.7 Q 340.8 -0.7 342.5 -3.2 Q 344.2 -5.8 344.2 -9.5 Q 344.2 -13.3 341.8 -17.2 Q 339.4 -21.1 335.4 -21.1 L 335.4 -21.1 Q 332.5 -21.1 330.8 -18.6 Q 329.1 -16 329.1 -12.1 Q 329.1 -8.2 331.1 -4.7 Z M 370.3 -2.6 L 370.3 -2.6 Q 366.9 0.7 362.7 0.7 L 362.7 0.7 Q 361.2 0.7 358.6 0.1 L 358.6 0.1 Q 358.2 0.1 358.1 0.4 Q 358.1 0.7 358.1 1 L 358.1 1 L 358.1 11.4 Q 358.1 13.3 360.2 13.9 L 360.2 13.9 Q 361.1 14.1 361.9 14.2 Q 362.8 14.3 363 14.4 Q 363.2 14.5 363.2 14.8 Q 363.2 15.1 363 15.1 L 363 15.1 L 350.7 15.1 Q 350.5 15.1 350.5 14.8 L 350.5 14.8 Q 350.5 14.4 351.6 14.2 L 351.6 14.2 Q 354.3 13.8 354.3 11.4 L 354.3 11.4 L 354.3 -17.9 Q 354.3 -18.9 353.2 -19.3 L 353.2 -19.3 Q 352.7 -19.4 352.1 -19.5 Q 351.6 -19.6 351.2 -19.8 Q 350.9 -19.9 350.8 -19.9 Q 350.7 -20 350.7 -20.3 Q 350.7 -20.6 351.1 -20.8 L 351.1 -20.8 L 357.3 -23.8 Q 357.5 -23.9 357.7 -23.9 L 357.7 -23.9 Q 358.1 -23.9 358.1 -23.3 L 358.1 -23.3 L 358.1 -20.2 Q 358.1 -19.9 358.4 -19.9 Q 358.6 -19.9 359.7 -20.6 L 359.7 -20.6 Q 362.8 -22.6 366.2 -22.6 L 366.2 -22.6 Q 368.5 -22.6 370.5 -20.7 L 370.5 -20.7 Q 373 -18.2 373.9 -13.8 L 373.9 -13.8 Q 374.1 -12.5 374.1 -11.1 Q 374.1 -9.6 373.7 -8.1 L 373.7 -8.1 Q 372.7 -4.9 370.3 -2.6 Z M 363.3 -20.1 L 363.3 -20.1 Q 360 -20.1 358.1 -18.2 L 358.1 -18.2 L 358.1 -4.4 Q 358.1 -3.2 358.5 -2.9 L 358.5 -2.9 Q 359.6 -1.9 361.8 -1.4 L 361.8 -1.4 Q 366.2 -0.4 368.6 -3.5 L 368.6 -3.5 Q 370.4 -5.7 370.4 -8.9 L 370.4 -8.9 Q 370.4 -15 367.6 -18.1 L 367.6 -18.1 Q 365.9 -19.9 363.3 -20.1 Z M 396.6 -12.9 L 382.5 -12.9 Q 382 -12.9 382 -11.1 L 382 -11.1 Q 382 -7.3 384.3 -4.7 Q 386.5 -2.2 389.9 -2.2 Q 393.2 -2.2 396.3 -5 L 396.3 -5 Q 396.3 -5.1 396.4 -5.1 L 396.4 -5.1 L 396.5 -5.1 Q 396.7 -5.1 396.8 -4.9 Q 396.9 -4.6 397.1 -4.6 L 397.1 -4.6 Q 394.2 -1.1 390.4 0.2 L 390.4 0.2 Q 389.1 0.7 387.4 0.7 Q 385.8 0.7 384 -0.3 Q 382.3 -1.2 381.1 -2.7 L 381.1 -2.7 Q 378.5 -5.8 378.5 -10.4 Q 378.5 -15 381.3 -18.8 Q 384.2 -22.6 389.1 -22.6 L 389.1 -22.6 Q 392.6 -22.6 394.9 -19.5 Q 397.1 -16.3 397.1 -13.9 L 397.1 -13.9 Q 397.1 -12.9 396.6 -12.9 L 396.6 -12.9 Z M 382.7 -15.5 L 382.7 -15.2 Q 382.7 -14.8 383.2 -14.8 L 383.2 -14.8 L 392.4 -14.8 Q 393 -14.8 393 -15.5 L 393 -15.5 Q 393 -17.3 391.4 -19.1 Q 389.9 -20.9 388 -20.9 L 388 -20.9 Q 386.1 -20.9 384.6 -19.3 Q 383.1 -17.6 382.7 -15.5 L 382.7 -15.5 Z M 416.1 -17.5 L 416.1 -17.5 Q 415.8 -17.6 415.2 -17.8 L 415.2 -17.8 Q 413.2 -18.8 412 -18.8 Q 410.9 -18.8 409.6 -17.3 Q 408.4 -15.9 408.4 -14.8 L 408.4 -14.8 L 408.4 -3.7 Q 408.4 -1.9 410.5 -1.3 L 410.5 -1.3 Q 411.4 -1 412.2 -0.9 Q 413 -0.8 413.3 -0.7 Q 413.5 -0.6 413.5 -0.3 Q 413.5 -0.1 413.3 0 L 413.3 0 L 401 0 Q 400.8 -0.1 400.8 -0.3 L 400.8 -0.3 Q 400.8 -0.8 401.9 -0.9 L 401.9 -0.9 Q 404.6 -1.3 404.6 -3.7 L 404.6 -3.7 L 404.6 -16.6 Q 404.6 -17.6 403.4 -18 L 403.4 -18 Q 403 -18.2 402.4 -18.3 Q 401.8 -18.4 401.5 -18.5 Q 401.2 -18.6 401.1 -18.7 Q 401 -18.8 401 -19.1 Q 401 -19.4 401.4 -19.6 L 401.4 -19.6 L 407.6 -22.5 Q 407.9 -22.6 408 -22.6 L 408 -22.6 Q 408.4 -22.6 408.4 -22.1 L 408.4 -22.1 L 408.4 -18.1 Q 408.4 -17.8 408.5 -17.8 L 408.5 -17.8 Q 408.7 -17.8 409.5 -18.9 L 409.5 -18.9 Q 411.9 -22.2 413.4 -22.2 L 413.4 -22.2 Q 414.2 -22.2 416 -21.5 Q 417.8 -20.8 417.8 -20.4 L 417.8 -20.4 Q 417.8 -19.8 417.2 -18.6 Q 416.6 -17.5 416.1 -17.5 Z" opacity="1" transform="matrix(1,0,0,1,0,0)" fill="#ffffff" class="slogan-text-1" data-fill-palette-color="secondary" id="text-1"></path></svg></g></svg></g></svg></g></svg></g></svg></g><defs></defs></svg><rect width="395.5" height="222.1" fill="none" stroke="none" visibility="hidden"></rect></g></svg></g>
    <rect fill="#000000" x="395.1" y="1069.5" width="1242.9" height="257.9"/></svg>