<svg xmlns="http://www.w3.org/2000/svg" version="1.1" xmlns:xlink="http://www.w3.org/1999/xlink" width="1000" height="1000"><style>
    #light-icon {
      display: inline;
    }
    #dark-icon {
      display: none;
    }

    @media (prefers-color-scheme: dark) {
      #light-icon {
        display: none;
      }
      #dark-icon {
        display: inline;
      }
    }
  </style><g id="light-icon"><svg xmlns="http://www.w3.org/2000/svg" version="1.1" xmlns:xlink="http://www.w3.org/1999/xlink" width="1000" height="1000"><g clip-path="url(#SvgjsClipPath2002)"><rect width="1000" height="1000" fill="#2c2c41"></rect><g transform="matrix(29.166666666666668,0,0,29.166666666666668,150,150)"><svg xmlns="http://www.w3.org/2000/svg" version="1.1" xmlns:xlink="http://www.w3.org/1999/xlink" width="24" height="24"><svg xmlns="http://www.w3.org/2000/svg" width="24" height="24" viewBox="0 0 24 24">
  <path fill="#fff" d="m19.546 7.573l-1.531-1.57l-1.442 1.291l-.959.86l3.876 3.987l-2.426 2.496l-1.451 1.492c.55.499 1.091.99 1.64 1.486l.764.694l2.21-2.277L24 12.14v-.001zM2.992 9.072L0 12.14c2.01 2.073 3.993 4.115 5.984 6.167l.51-.464l1.893-1.715L6.94 14.64l-2.43-2.5l3.109-3.196l.767-.789c-.434-.39-.86-.772-1.288-1.154L5.984 6v.001zm12.585-6.038L11.632 21.6l-.196-.039l-3.029-.595l2.555-12.02L12.353 2.4z"></path>
</svg></svg></g></g><defs><clipPath id="SvgjsClipPath2002"><rect width="1000" height="1000" x="0" y="0" rx="200" ry="200"></rect></clipPath></defs></svg></g><g id="dark-icon"><svg xmlns="http://www.w3.org/2000/svg" version="1.1" xmlns:xlink="http://www.w3.org/1999/xlink" width="1000" height="1000"><g><g transform="matrix(41.666666666666664,0,0,41.666666666666664,0,0)"><svg xmlns="http://www.w3.org/2000/svg" version="1.1" xmlns:xlink="http://www.w3.org/1999/xlink" width="24" height="24"><svg xmlns="http://www.w3.org/2000/svg" width="24" height="24" viewBox="0 0 24 24">
  <path fill="#fff" d="m19.546 7.573l-1.531-1.57l-1.442 1.291l-.959.86l3.876 3.987l-2.426 2.496l-1.451 1.492c.55.499 1.091.99 1.64 1.486l.764.694l2.21-2.277L24 12.14v-.001zM2.992 9.072L0 12.14c2.01 2.073 3.993 4.115 5.984 6.167l.51-.464l1.893-1.715L6.94 14.64l-2.43-2.5l3.109-3.196l.767-.789c-.434-.39-.86-.772-1.288-1.154L5.984 6v.001zm12.585-6.038L11.632 21.6l-.196-.039l-3.029-.595l2.555-12.02L12.353 2.4z"></path>
</svg></svg></g></g></svg></g></svg>