<svg xmlns="http://www.w3.org/2000/svg" style="display: none;">

  <symbol id="icon-dev" viewBox="0 0 24 24">
    <path fill="currentColor"
      d="m19.546 7.573l-1.531-1.57l-1.442 1.291l-.959.86l3.876 3.987l-2.426 2.496l-1.451 1.492c.55.499 1.091.99 1.64 1.486l.764.694l2.21-2.277L24 12.14v-.001zM2.992 9.072L0 12.14c2.01 2.073 3.993 4.115 5.984 6.167l.51-.464l1.893-1.715L6.94 14.64l-2.43-2.5l3.109-3.196l.767-.789c-.434-.39-.86-.772-1.288-1.154L5.984 6v.001zm12.585-6.038L11.632 21.6l-.196-.039l-3.029-.595l2.555-12.02L12.353 2.4z" />
  </symbol>
  <symbol id="icon-chevron-down" viewBox="0 0 24 24">
    <path fill="none" stroke="currentColor" stroke-linecap="round" stroke-linejoin="round" stroke-width="2"
      d="m17 10l-5 5l-5-5" />
  </symbol>

  <symbol id="icon-chevron-right" viewBox="0 0 24 24">
    <path fill="currentColor" d="M12.6 12L8 7.4L9.4 6l6 6l-6 6L8 16.6z" />
  </symbol>

  <symbol id="icon-sort-down" viewBox="0 0 24 24">
    <path fill="currentColor" d="m6 20l4-4H7V4H5v12H2zm5-12h9v2h-9zm0 4h7v2h-7zm0-8h11v2H11zm0 12h5v2h-5z" />
  </symbol>

  <symbol id="icon-sort-up" viewBox="0 0 24 24">
    <path fill="currentColor" d="M11 9h9v2h-9zm0 4h7v2h-7zm0-8h11v2H11zm0 12h5v2h-5zm-6 3h2V8h3L6 4L2 8h3z" />
  </symbol>

  <symbol id="icon-mail" viewBox="0 0 24 24">
    <path fill="currentColor"
      d="M20 18h-2V9.25L12 13L6 9.25V18H4V6h1.2l6.8 4.25L18.8 6H20m0-2H4c-1.11 0-2 .89-2 2v12a2 2 0 0 0 2 2h16a2 2 0 0 0 2-2V6a2 2 0 0 0-2-2" />
  </symbol>

  <symbol id="icon-download" viewBox="0 0 24 24">
    <path fill="currentColor"
      d="m12 16l-5-5l1.4-1.45l2.6 2.6V4h2v8.15l2.6-2.6L17 11zm-6 4q-.825 0-1.412-.587T4 18v-3h2v3h12v-3h2v3q0 .825-.587 1.413T18 20z" />
  </symbol>

  <symbol id="icon-github" viewBox="0 0 24 24">
    <path fill="currentColor"
      d="M12 2A10 10 0 0 0 2 12c0 4.42 2.87 8.17 6.84 9.5c.5.08.66-.23.66-.5v-1.69c-2.77.6-3.36-1.34-3.36-1.34c-.46-1.16-1.11-1.47-1.11-1.47c-.91-.62.07-.6.07-.6c1 .07 1.53 1.03 1.53 1.03c.87 1.52 2.34 1.07 2.91.83c.09-.65.35-1.09.63-1.34c-2.22-.25-4.55-1.11-4.55-4.92c0-1.11.38-2 1.03-2.71c-.1-.25-.45-1.29.1-2.64c0 0 .84-.27 2.75 1.02c.79-.22 1.65-.33 2.5-.33s1.71.11 2.5.33c1.91-1.29 2.75-1.02 2.75-1.02c.55 1.35.2 2.39.1 2.64c.65.71 1.03 1.6 1.03 2.71c0 3.82-2.34 4.66-4.57 4.91c.36.31.69.92.69 1.85V21c0 .27.16.59.67.5C19.14 20.16 22 16.42 22 12A10 10 0 0 0 12 2" />
  </symbol>

  <symbol id="icon-linkedin" viewBox="0 0 24 24">
    <path fill="currentColor"
      d="M19 3a2 2 0 0 1 2 2v14a2 2 0 0 1-2 2H5a2 2 0 0 1-2-2V5a2 2 0 0 1 2-2zm-.5 15.5v-5.3a3.26 3.26 0 0 0-3.26-3.26c-.85 0-1.84.52-2.32 1.3v-1.11h-2.79v8.37h2.79v-4.93c0-.77.62-1.4 1.39-1.4a1.4 1.4 0 0 1 1.4 1.4v4.93zM6.88 8.56a1.68 1.68 0 0 0 1.68-1.68c0-.93-.75-1.69-1.68-1.69a1.69 1.69 0 0 0-1.69 1.69c0 .93.76 1.68 1.69 1.68m1.39 9.94v-8.37H5.5v8.37z" />
  </symbol>

  <symbol id="icon-globe" viewBox="0 0 24 24">
    <path stroke-linejoin="round" stroke-linecap="round" stroke-width="2" fill="none" stroke="currentColor"
      d="M12 21a9 9 0 1 0 0-18m0 18a9 9 0 1 1 0-18m0 18c2.761 0 3.941-5.163 3.941-9S14.761 3 12 3m0 18c-2.761 0-3.941-5.163-3.941-9S9.239 3 12 3M3.5 9h17m-17 6h17">
    </path>
  </symbol>

  <symbol id="icon-location" viewBox="0 0 384 512">
    <path fill="currentColor"
      d="M192 0C86 0 0 86 0 192c0 77.4 99.3 202.7 148.4 263.3a32 32 0 0047.2 0C284.7 394.7 384 269.4 384 192 384 86 298 0 192 0zm0 272a80 80 0 1180-80 80 80 0 01-80 80z" />
  </symbol>

  <symbol id="icon-education" viewBox="0 0 448 512">
    <path fill="currentColor"
      d="M319.4 320.6L224 416l-95.4-95.4C57.1 323.7 0 382.2 0 454.4v9.6c0 26.5 21.5 48 48 48h352c26.5 0 48-21.5 48-48v-9.6c0-72.2-57.1-130.7-128.6-133.8zM13.6 79.8l6.4 1.5v58.4c-7 4.2-12 11.5-12 20.3 0 8.4 4.6 15.4 11.1 19.7L3.5 242c-1.7 6.9 2.1 14 7.6 14h41.8c5.5 0 9.3-7.1 7.6-14l-15.6-62.3C51.4 175.4 56 168.4 56 160c0-8.8-5-16.1-12-20.3V87.1l66 15.9c-8.6 17.2-14 36.4-14 57 0 70.7 57.3 128 128 128s128-57.3 128-128c0-20.6-5.3-39.8-14-57l96.3-23.2c18.2-4.4 18.2-27.1 0-31.5l-190.4-46c-13-3.1-26.7-3.1-39.7 0L13.6 48.2c-18.1 4.4-18.1 27.2 0 31.6z" />
  </symbol>

  <symbol id="icon-interests" viewBox="0 0 256 256">
    <path fill="currentColor"
      d="M248,112H220.08l-47.5-65.41a16,16,0,0,0-25.31-.72l-12.85,14.9-.2.23a7.95,7.95,0,0,1-12.44,0l-.2-.23-12.85-14.9a16,16,0,0,0-25.31.72L35.92,112H8a8,8,0,0,0,0,16H248a8,8,0,0,0,0-16ZM96.34,56l.19.23,12.85,14.89a24,24,0,0,0,37.24,0l12.85-14.89c.06-.08.1-.15.17-.23l40.66,56H55.69ZM180,144a36,36,0,0,0-35.77,32H111.77a36,36,0,1,0-1.83,16h36.12A36,36,0,1,0,180,144ZM76,200a20,20,0,1,1,20-20A20,20,0,0,1,76,200Zm104,0a20,20,0,1,1,20-20A20,20,0,0,1,180,200Z" />
  </symbol>

  <symbol id="icon-language" viewBox="0 0 24 24">
    <path fill="none" stroke="currentColor" stroke-width="2" stroke-linecap="round" stroke-linejoin="round"
      d="M12 21a9 9 0 1 0 0-18m0 18a9 9 0 1 1 0-18m0 18c2.761 0 3.941-5.163 3.941-9S14.761 3 12 3m0 18c-2.761 0-3.941-5.163-3.941-9S9.239 3 12 3M3.5 9h17m-17 6h17" />
  </symbol>

  <symbol id="icon-calendar" viewBox="0 0 24 24">
    <g class="calendar-outline">
      <g fill="currentColor" class="Vector">
        <path fill-rule="evenodd"
          d="M6 4h12a4 4 0 0 1 4 4v10a4 4 0 0 1-4 4H6a4 4 0 0 1-4-4V8a4 4 0 0 1 4-4m0 2a2 2 0 0 0-2 2v10a2 2 0 0 0 2 2h12a2 2 0 0 0 2-2V8a2 2 0 0 0-2-2z"
          clip-rule="evenodd" />
        <path fill-rule="evenodd"
          d="M3 10a1 1 0 0 1 1-1h16a1 1 0 1 1 0 2H4a1 1 0 0 1-1-1m5-8a1 1 0 0 1 1 1v4a1 1 0 0 1-2 0V3a1 1 0 0 1 1-1m8 0a1 1 0 0 1 1 1v4a1 1 0 1 1-2 0V3a1 1 0 0 1 1-1"
          clip-rule="evenodd" />
        <path
          d="M8 13a1 1 0 1 1-2 0a1 1 0 0 1 2 0m0 4a1 1 0 1 1-2 0a1 1 0 0 1 2 0m5-4a1 1 0 1 1-2 0a1 1 0 0 1 2 0m0 4a1 1 0 1 1-2 0a1 1 0 0 1 2 0m5-4a1 1 0 1 1-2 0a1 1 0 0 1 2 0m0 4a1 1 0 1 1-2 0a1 1 0 0 1 2 0" />
      </g>
    </g>
  </symbol>

  <symbol id="icon-check-one" viewBox="0 0 24 24">
    <g fill="currentColor">
      <path d="M10.243 16.314L6 12.07l1.414-1.414l2.829 2.828l5.656-5.657l1.415 1.415z" />
      <path fill-rule="evenodd"
        d="M1 12C1 5.925 5.925 1 12 1s11 4.925 11 11s-4.925 11-11 11S1 18.075 1 12m11 9a9 9 0 1 1 0-18a9 9 0 0 1 0 18"
        clip-rule="evenodd" />
    </g>
  </symbol>

  <symbol id="icon-clock" viewBox="0 0 24 24">
    <path fill="currentColor"
      d="M12 20a8 8 0 0 0 8-8a8 8 0 0 0-8-8a8 8 0 0 0-8 8a8 8 0 0 0 8 8m0-18a10 10 0 0 1 10 10a10 10 0 0 1-10 10C6.47 22 2 17.5 2 12A10 10 0 0 1 12 2m.5 5v5.25l4.5 2.67l-.75 1.23L11 13V7z" />
  </symbol>

  <symbol id="icon-arrow-right" viewBox="0 0 16 9">
    <path fill="currentColor" d="M12.5 5h-9c-.28 0-.5-.22-.5-.5s.22-.5.5-.5h9c.28 0 .5.22.5.5s-.22.5-.5.5" />
    <path fill="currentColor"
      d="M10 8.5a.47.47 0 0 1-.35-.15c-.2-.2-.2-.51 0-.71l3.15-3.15l-3.15-3.15c-.2-.2-.2-.51 0-.71s.51-.2.71 0l3.5 3.5c.2.2.2.51 0 .71l-3.5 3.5c-.1.1-.23.15-.35.15Z" />
  </symbol>

  <symbol id="icon-external-link" viewBox="0 0 24 24">
    <path fill="currentColor"
      d="M14 3v2h3.59l-9.83 9.83l1.41 1.41L19 6.41V10h2V3m-2 16H5V5h7V3H5a2 2 0 0 0-2 2v14a2 2 0 0 0 2 2h14a2 2 0 0 0 2-2v-7h-2z" />
  </symbol>

  <symbol id="icon-menu" viewBox="0 0 24 24">
    <path fill="currentColor" d="M3 18v-2h18v2zm0-5v-2h18v2zm0-5V6h18v2z" />
  </symbol>

  <symbol id="icon-repository" viewBox="0 0 24 24"><path fill="currentColor" d="M6 2h12a2 2 0 0 1 2 2v16a2 2 0 0 1-2 2H6a2 2 0 0 1-2-2V4a2 2 0 0 1 2-2m6.75 11.5c2.75 0 3.49-2.03 3.68-3.1c.91-.29 1.57-1.14 1.57-2.15C18 7 17 6 15.75 6S13.5 7 13.5 8.25c0 .94.57 1.75 1.39 2.08C14.67 11 14 12 12 12c-1.38 0-2.34.35-3 .84V8.87c.87-.31 1.5-1.14 1.5-2.12c0-1.25-1-2.25-2.25-2.25S6 5.5 6 6.75c0 .98.63 1.81 1.5 2.12v6.26c-.87.31-1.5 1.14-1.5 2.12c0 1.25 1 2.25 2.25 2.25s2.25-1 2.25-2.25c0-.93-.56-1.75-1.37-2.07c.28-.68 1.1-1.68 3.62-1.68m-4.5 3a.75.75 0 0 1 .75.75a.75.75 0 0 1-.75.75a.75.75 0 0 1-.75-.75a.75.75 0 0 1 .75-.75m0-10.5a.75.75 0 0 1 .75.75a.75.75 0 0 1-.75.75a.75.75 0 0 1-.75-.75a.75.75 0 0 1 .75-.75m7.5 1.5a.75.75 0 0 1 .75.75a.75.75 0 0 1-.75.75a.75.75 0 0 1-.75-.75a.75.75 0 0 1 .75-.75"/></symbol>

</svg>