<svg width="30" height="30" viewBox="0 0 30 30" fill="none" xmlns="http://www.w3.org/2000/svg">
<path d="M14.982 0.00322284C14.9515 0.00879699 14.9209 0.0171572 14.8931 0.025518C14.5624 0.100764 14.3289 0.398963 14.3372 0.738964V5.01964C14.3345 5.27603 14.4679 5.51571 14.6902 5.64669C14.9125 5.77489 15.1849 5.77489 15.4073 5.64669C15.6296 5.51571 15.763 5.27603 15.7602 5.01964V0.738964C15.7686 0.532734 15.6852 0.334864 15.5379 0.195518C15.3878 0.0533872 15.1849 -0.0162856 14.982 0.00322284ZM4.84313 4.19472C4.57632 4.24209 4.36231 4.43718 4.28727 4.69636C4.21223 4.95833 4.29005 5.23702 4.48738 5.42095L7.51126 8.4531C7.68358 8.6649 7.95873 8.76244 8.22554 8.70113C8.48958 8.63982 8.69802 8.4308 8.75917 8.16605C8.82031 7.89851 8.72304 7.6226 8.51181 7.44981L5.48793 4.41767C5.34062 4.25882 5.12662 4.178 4.90983 4.19472C4.8876 4.19472 4.86536 4.19472 4.84313 4.19472ZM25.032 4.19472C24.8708 4.21701 24.7207 4.29783 24.6095 4.41767L21.5857 7.44981C21.3744 7.6226 21.2772 7.89851 21.3383 8.16605C21.3994 8.4308 21.6079 8.63982 21.8719 8.70113C22.1387 8.76244 22.4139 8.6649 22.5862 8.4531L25.6101 5.42095C25.8324 5.20915 25.8964 4.87751 25.7657 4.59882C25.6323 4.31734 25.3377 4.1557 25.032 4.19472ZM15.0487 7.87342C11.1244 7.87342 7.93371 11.0728 7.93371 15.0079C7.93371 18.943 11.1244 22.1423 15.0487 22.1423C18.9731 22.1423 22.1638 18.943 22.1638 15.0079C22.1638 11.0728 18.9731 7.87342 15.0487 7.87342ZM0.618586 14.2944C0.226704 14.3502 -0.048447 14.7153 0.00713912 15.1082C0.0627252 15.5012 0.426814 15.7771 0.818696 15.7213H5.08771C5.3434 15.7241 5.58242 15.5903 5.71305 15.3674C5.8409 15.1444 5.8409 14.8713 5.71305 14.6484C5.58242 14.4254 5.3434 14.2916 5.08771 14.2944H0.818696C0.796462 14.2944 0.774227 14.2944 0.751993 14.2944C0.729758 14.2944 0.707524 14.2944 0.685289 14.2944C0.663055 14.2944 0.640821 14.2944 0.618586 14.2944ZM24.8097 14.2944C24.4178 14.3502 24.1426 14.7153 24.1982 15.1082C24.2538 15.5012 24.6179 15.7771 25.0098 15.7213H29.2788C29.5345 15.7241 29.7735 15.5903 29.9041 15.3674C30.032 15.1444 30.032 14.8713 29.9041 14.6484C29.7735 14.4254 29.5345 14.2916 29.2788 14.2944H25.0098C24.9875 14.2944 24.9653 14.2944 24.9431 14.2944C24.9208 14.2944 24.8986 14.2944 24.8764 14.2944C24.8541 14.2944 24.8319 14.2944 24.8097 14.2944ZM7.93371 21.3397C7.77252 21.362 7.62243 21.4428 7.51126 21.5627L4.48738 24.5948C4.27615 24.7676 4.17887 25.0435 4.24002 25.311C4.30116 25.5758 4.50961 25.7848 4.77365 25.8461C5.04046 25.9074 5.31561 25.8099 5.48793 25.5981L8.51181 22.5659C8.72304 22.3625 8.78696 22.0476 8.67301 21.7773C8.56184 21.5069 8.29224 21.3341 8.00042 21.3397C7.97818 21.3397 7.95595 21.3397 7.93371 21.3397ZM21.9414 21.3397C21.6746 21.3871 21.4606 21.5822 21.3855 21.8414C21.3105 22.1033 21.3883 22.382 21.5857 22.5659L24.6095 25.5981C24.7819 25.8099 25.057 25.9074 25.3238 25.8461C25.5879 25.7848 25.7963 25.5758 25.8574 25.311C25.9186 25.0435 25.8213 24.7676 25.6101 24.5948L22.5862 21.5627C22.4528 21.4205 22.2694 21.3425 22.0748 21.3397C22.0526 21.3397 22.0303 21.3397 22.0081 21.3397C21.9859 21.3397 21.9636 21.3397 21.9414 21.3397ZM14.982 24.2604C14.9515 24.266 14.9209 24.2743 14.8931 24.2827C14.5624 24.3579 14.3289 24.6561 14.3372 24.9961V29.2768C14.3345 29.5332 14.4679 29.7729 14.6902 29.9039C14.9125 30.032 15.1849 30.032 15.4073 29.9039C15.6296 29.7729 15.763 29.5332 15.7602 29.2768V24.9961C15.7686 24.7899 15.6852 24.592 15.5379 24.4527C15.3878 24.3105 15.1849 24.2409 14.982 24.2604Z" fill="#FCF8A1"/>
</svg>